<?xml version="1.0" ?>
<svg xmlns="http://www.w3.org/2000/svg" width="24" height="24" viewBox="0 0 24 24">
  <path d="M8.75,11c0.41,0 0.75,-0.34 0.75,-0.75V8.5h1.75C11.66,8.5 12,8.16 12,7.75C12,7.34 11.66,7 11.25,7H9C8.45,7 8,7.45 8,8v2.25C8,10.66 8.34,11 8.75,11z" fill="#FF000000"/>
  <path d="M12.75,17H15c0.55,0 1,-0.45 1,-1v-2.25c0,-0.41 -0.34,-0.75 -0.75,-0.75s-0.75,0.34 -0.75,0.75v1.75h-1.75c-0.41,0 -0.75,0.34 -0.75,0.75C12,16.66 12.34,17 12.75,17z" fill="#FF000000"/>
  <path d="M16,1H8C6.34,1 5,2.34 5,4v16c0,1.65 1.35,3 3,3h8c1.65,0 3,-1.35 3,-3V4C19,2.34 17.66,1 16,1zM17,18H7V6h10V18z" fill="#FF000000"/>
</svg>
