<?xml version="1.0" ?>
<svg xmlns="http://www.w3.org/2000/svg" width="24" height="24" viewBox="0 0 24 24">
  <path d="M17.7,2.3c-0.4-0.4-1-0.4-1.4,0l-4,4c-0.4,0.4-0.4,1,0,1.4l4,4c0.4,0.4,1,0.4,1.4,0l4-4c0.4-0.4,0.4-1,0-1.4L17.7,2.3z" fill="@android:color/white"/>
  <path d="M11,4c0-0.5-0.4-1-1-1H4C3.5,3,3,3.5,3,4v6c0,0.6,0.5,1,1,1h6c0.6,0,1-0.4,1-1V4z" fill="@android:color/white"/>
  <path d="M20,21c0.5,0,1-0.5,1-1v-6c0-0.6-0.5-1-1-1h-6c-0.6,0-1,0.4-1,1v6c0,0.5,0.4,1,1,1H20z" fill="@android:color/white"/>
  <path d="M10,13H4c-0.5,0-1,0.4-1,1v6c0,0.5,0.5,1,1,1h6c0.6,0,1-0.5,1-1v-6C11,13.4,10.6,13,10,13z" fill="@android:color/white"/>
</svg>
